<svg width="1091" height="1024" viewBox="0 0 1091 1024" fill="none" xmlns="http://www.w3.org/2000/svg">
<g opacity="0.5">
<path d="M597.291 -166.431C746.624 -166.431 888.76 -74.6723 942.735 72.8611C1011.1 261.776 913.948 470.482 723.234 540.65C631.476 574.835 530.721 569.437 442.561 528.056C354.401 486.674 286.032 414.707 253.646 322.948C185.277 134.033 282.433 -74.6724 473.147 -144.841C512.729 -159.234 555.91 -166.431 597.291 -166.431ZM597.291 544.248C636.873 544.248 678.255 537.052 716.038 522.658C897.756 457.887 991.313 258.178 924.743 78.2588C858.173 -101.66 658.464 -193.419 476.746 -128.648C388.585 -96.2626 318.417 -33.291 280.634 51.2709C241.052 135.833 237.454 229.39 269.839 315.751C302.224 402.113 365.196 472.281 449.758 511.863C496.537 533.453 546.914 544.248 597.291 544.248Z" fill="white" fill-opacity="0.01"/>
<path d="M841.98 501.065C894.156 501.065 948.132 511.86 996.71 535.25C1084.87 576.631 1153.24 648.598 1185.62 740.357C1219.81 832.116 1214.41 931.071 1173.03 1019.23C1131.65 1107.39 1057.88 1173.96 966.124 1208.15C874.365 1240.53 773.61 1236.93 685.45 1195.55C597.29 1154.17 528.921 1082.2 496.535 990.444C462.351 898.686 467.748 799.73 509.13 711.57C550.511 623.41 624.278 556.84 716.036 522.655C757.418 508.262 800.598 501.065 841.98 501.065ZM841.98 1211.74C881.562 1211.74 922.943 1204.55 960.726 1190.15C1048.89 1157.77 1119.05 1094.8 1156.84 1010.24C1198.22 927.473 1201.82 833.915 1169.43 747.554C1137.05 661.193 1074.07 591.024 989.513 551.442C904.951 511.86 809.594 508.262 723.233 540.647C635.073 573.033 564.905 636.004 527.122 720.566C489.339 805.128 483.941 898.686 516.327 985.047C548.712 1071.41 611.683 1141.58 696.245 1181.16C741.225 1200.95 791.602 1211.74 841.98 1211.74Z" fill="white" fill-opacity="0.01"/>
<path d="M719.63 522.679C921.139 522.679 1086.66 686.406 1086.66 886.116C1086.66 1085.83 921.139 1251.35 719.63 1251.35C518.121 1251.35 352.595 1087.62 352.595 887.915C352.595 688.205 518.121 522.679 719.63 522.679ZM719.63 1233.36C912.143 1233.36 1068.67 1078.63 1068.67 886.116C1068.67 693.602 912.143 540.671 719.63 540.671C527.117 540.671 370.587 695.401 370.587 887.915C370.587 1080.43 527.117 1233.36 719.63 1233.36Z" fill="white" fill-opacity="0.01"/>
<path d="M719.63 -188C921.139 -188 1086.66 -24.2741 1086.66 175.436C1086.66 375.146 921.139 540.671 719.63 540.671C518.121 540.671 352.595 376.945 352.595 177.235C352.595 -22.4749 518.121 -188 719.63 -188ZM719.63 522.679C912.143 522.679 1068.67 367.949 1068.67 175.436C1068.67 -17.0774 912.143 -170.008 719.63 -170.008C527.117 -170.008 370.587 -15.2781 370.587 177.235C370.587 369.748 527.117 522.679 719.63 522.679Z" fill="white" fill-opacity="0.01"/>
<path d="M841.974 -166.392C885.154 -166.392 926.536 -159.195 967.917 -144.802C1158.63 -76.4326 1255.79 134.072 1187.42 322.987C1153.23 414.746 1086.66 486.713 998.503 528.095C910.343 569.476 809.588 573.074 717.83 540.689C626.071 508.303 552.304 439.934 510.923 351.774C469.542 263.614 465.943 164.659 498.329 72.9C532.513 -18.8586 599.083 -90.8262 687.244 -132.208C735.822 -155.597 789.797 -166.392 841.974 -166.392ZM1169.43 315.79C1236 135.872 1142.44 -62.0391 960.72 -128.609C872.56 -160.994 779.002 -155.597 694.44 -117.814C609.878 -78.2318 545.108 -9.86263 514.521 78.2976C482.136 164.659 487.534 260.016 525.317 342.778C563.1 425.541 635.067 490.312 721.428 522.697C809.588 555.082 904.945 551.484 989.507 511.902C1074.07 472.32 1138.84 403.951 1169.43 315.79Z" fill="white" fill-opacity="0.01"/>
<path d="M597.285 501.094C640.465 501.094 681.847 508.291 723.228 522.684C814.987 555.07 888.753 623.439 930.135 711.599C971.516 799.759 975.114 898.715 942.729 990.473C872.561 1179.39 662.055 1276.54 471.342 1208.17C379.583 1175.79 305.816 1107.42 264.435 1019.26C223.053 931.1 219.455 832.145 251.841 740.386C286.025 648.627 352.595 576.66 440.755 535.279C491.133 511.889 543.309 501.094 597.285 501.094ZM597.285 1211.77C739.421 1211.77 874.36 1123.61 926.536 983.276C958.922 896.915 953.524 801.559 915.741 718.796C876.159 634.234 805.991 571.262 719.63 538.877C631.469 506.492 537.911 511.889 453.35 549.672C368.788 589.254 304.017 657.623 273.431 745.784C242.845 833.944 246.443 927.502 284.226 1010.26C323.808 1094.83 393.976 1157.8 480.337 1190.18C516.321 1204.58 557.703 1211.77 597.285 1211.77Z" fill="white" fill-opacity="0.01"/>
<path d="M489.336 439.914C572.098 439.914 656.66 468.701 725.029 524.476C879.76 654.017 899.551 884.313 770.009 1037.24C640.467 1191.97 408.372 1211.77 253.642 1082.22C98.9119 952.682 79.1208 722.386 208.662 569.455C280.63 484.893 384.983 439.914 489.336 439.914ZM489.336 1150.59C588.291 1150.59 687.246 1109.21 757.415 1026.45C881.559 880.715 861.768 661.214 714.234 538.869C566.701 416.524 345.401 434.516 223.056 582.05C98.912 727.784 118.703 947.285 266.236 1069.63C331.007 1123.61 410.171 1150.59 489.336 1150.59Z" fill="white" fill-opacity="0.01"/>
<path d="M949.932 -105.236C1036.29 -105.236 1119.06 -74.6501 1185.63 -20.6745C1261.19 42.2971 1306.17 130.457 1315.17 225.814C1324.16 322.97 1293.58 416.528 1230.6 492.094C1167.63 567.66 1079.47 614.439 982.317 621.636C885.161 630.632 789.804 600.045 714.238 537.074C638.672 474.102 593.692 385.942 584.696 290.585C575.701 195.228 606.287 99.8711 669.258 26.1043C732.23 -47.6624 820.39 -94.4413 917.546 -103.437C928.341 -105.236 939.137 -105.236 949.932 -105.236ZM949.932 605.443C1048.89 605.443 1147.84 564.062 1218.01 481.299C1277.38 411.131 1306.17 321.171 1298.97 227.613C1291.78 134.056 1246.8 51.293 1174.83 -8.08022C1102.86 -67.4534 1012.9 -96.2405 919.345 -87.2445C825.788 -80.0478 743.025 -35.0681 681.853 35.1003C622.479 105.269 593.692 195.228 600.889 288.786C609.885 380.544 653.066 465.106 725.033 524.479C789.804 578.455 870.767 605.443 949.932 605.443Z" fill="white" fill-opacity="0.01"/>
<path d="M1029.09 -9.90546C1061.47 -9.90546 1093.86 -6.30713 1124.44 2.68881C1219.8 27.8774 1298.97 89.0498 1347.54 171.812C1396.12 256.374 1408.72 353.531 1383.53 448.887C1358.34 542.445 1297.17 621.61 1212.6 670.188C1128.04 718.766 1029.09 731.36 933.731 706.171C838.374 680.983 759.209 621.609 710.631 537.048C662.053 452.486 649.459 355.33 674.648 259.973C699.836 166.415 761.009 87.2506 845.57 38.6725C903.145 6.28717 966.116 -9.90547 1029.09 -9.90546ZM1030.89 700.774C1092.06 700.774 1151.43 684.581 1205.41 653.995C1286.37 607.216 1343.95 533.449 1367.34 443.49C1390.72 353.53 1378.13 259.973 1331.35 180.808C1284.57 101.644 1209.01 44.0702 1119.05 18.8815C1029.09 -4.50792 935.53 8.08641 854.566 53.0661C687.242 148.423 629.668 360.727 726.824 526.253C773.603 607.216 849.169 662.991 939.128 688.179C969.714 697.175 1000.3 700.774 1030.89 700.774Z" fill="white" fill-opacity="0.01"/>
<path d="M408.368 344.59C440.753 344.59 473.139 348.188 503.725 357.184C599.082 382.373 678.246 443.545 726.824 526.308C775.402 610.869 787.997 708.026 762.808 803.383C737.619 896.94 676.447 976.105 591.885 1024.68C507.323 1073.26 408.368 1085.86 313.011 1060.67C217.654 1035.48 138.49 976.105 89.9115 891.543C41.3334 806.981 28.7391 709.825 53.9278 614.468C79.1164 520.91 140.289 441.746 224.851 393.168C282.425 360.782 345.396 344.59 408.368 344.59ZM584.688 1010.29C665.652 963.51 723.226 889.744 746.615 799.784C770.005 709.825 759.21 616.267 712.431 537.103C665.652 456.139 590.086 400.364 500.126 375.176C410.167 351.786 316.609 364.381 235.646 409.36C154.682 456.139 97.1083 529.906 73.7188 619.865C50.3294 709.825 61.1245 803.383 107.903 882.547C154.682 963.51 230.248 1019.29 320.208 1044.47C408.368 1067.86 503.725 1055.27 584.688 1010.29Z" fill="white" fill-opacity="0.01"/>
<path d="M366.992 229.414C541.514 229.414 696.244 353.558 728.629 529.879C764.613 727.79 629.674 916.704 431.763 952.688C334.607 968.881 237.451 947.29 158.286 891.516C77.323 835.741 25.1465 752.978 7.15467 655.822C-28.8291 457.911 106.11 268.997 304.021 233.013C325.611 231.214 345.402 229.414 366.992 229.414ZM366.992 940.094C386.783 940.094 408.374 938.295 428.165 934.696C617.079 902.311 744.822 720.593 710.637 533.477C678.252 344.562 496.534 218.619 305.82 252.804C116.905 285.189 -10.8372 466.907 23.3474 654.023C39.5401 745.781 89.9173 824.946 167.282 877.122C226.656 918.503 295.025 940.094 366.992 940.094Z" fill="white" fill-opacity="0.01"/>
<path d="M1072.27 105.243C1246.79 105.243 1401.52 229.387 1433.91 405.708C1450.1 501.065 1428.51 598.221 1372.74 677.385C1316.96 756.549 1232.4 810.525 1135.24 826.718C935.533 860.902 744.819 729.562 710.634 531.651C674.65 333.74 809.589 144.825 1007.5 108.842C1029.09 107.043 1050.68 105.243 1072.27 105.243ZM1072.27 815.923C1092.06 815.923 1111.85 814.123 1133.44 810.525C1225.2 794.332 1306.17 743.955 1358.34 668.389C1412.32 592.823 1432.11 501.065 1415.92 409.306C1399.72 317.548 1349.35 238.383 1271.98 186.207C1194.62 134.03 1102.86 112.44 1011.1 128.633C822.184 161.018 694.441 342.736 728.626 529.852C757.413 697.176 906.746 815.923 1072.27 815.923Z" fill="white" fill-opacity="0.01"/>
<path d="M1072.27 229.413C1093.86 229.413 1115.45 231.213 1137.04 234.811C1334.95 268.996 1468.09 459.71 1433.91 655.821C1417.72 751.178 1363.74 835.74 1282.78 891.515C1201.81 947.29 1104.66 968.88 1009.3 952.687C809.592 916.703 676.452 727.789 710.636 529.878C743.022 353.557 897.752 229.413 1072.27 229.413ZM1072.27 940.093C1142.44 940.093 1212.61 918.503 1271.98 877.121C1347.55 823.146 1399.73 743.981 1415.92 654.022C1450.1 465.107 1322.36 285.188 1133.45 252.803C944.531 220.417 762.813 346.361 728.628 533.476C694.444 722.391 822.186 902.31 1011.1 934.695C1032.69 938.294 1052.48 940.093 1072.27 940.093Z" fill="white" fill-opacity="0.01"/>
<path d="M366.987 105.298C388.577 105.298 410.168 107.098 431.758 110.696C629.668 146.68 762.808 335.594 728.624 533.505C692.64 731.416 501.926 864.556 304.015 828.572C104.305 794.387 -28.8344 603.673 5.35022 407.562C21.5429 312.205 75.5185 227.643 156.482 171.868C219.454 128.688 291.421 105.298 366.987 105.298ZM366.987 815.978C532.512 815.978 680.046 697.231 710.632 529.907C744.817 340.992 617.074 161.073 428.159 128.688C239.245 96.3024 57.5267 222.246 23.3421 409.361C-10.8425 598.276 116.9 778.195 305.815 810.58C327.405 814.179 347.196 815.978 366.987 815.978Z" fill="white" fill-opacity="0.01"/>
<path d="M410.168 -9.90545C473.139 -9.90545 536.111 6.2872 593.685 38.6726C678.247 87.2507 739.419 166.415 764.608 259.973C789.796 353.531 777.202 452.486 728.624 537.048C680.046 621.609 600.882 680.983 505.525 706.171C410.168 731.36 311.212 718.766 226.65 670.188C142.089 621.609 80.9162 542.445 55.7276 448.887C30.5389 355.33 43.1333 256.374 91.7114 171.812C140.289 87.2506 219.454 27.8774 314.811 2.6888C345.397 -6.30714 377.782 -9.90546 410.168 -9.90545ZM408.368 700.774C438.955 700.774 469.541 697.175 500.127 688.179C590.086 664.79 665.652 607.216 712.431 526.253C759.21 445.289 771.805 353.53 746.616 263.571C723.226 173.612 663.853 99.845 584.689 53.0661C503.726 6.28725 410.168 -6.3071 320.208 18.8815C230.249 42.271 154.683 99.8449 107.904 180.808C61.1252 261.772 48.5308 353.53 73.7194 443.49C97.1089 533.449 156.482 607.216 235.646 653.995C289.622 684.581 348.995 700.774 408.368 700.774Z" fill="white" fill-opacity="0.01"/>
<path d="M1030.89 344.538C1093.86 344.538 1156.83 360.731 1214.41 393.116C1298.97 441.694 1360.14 520.858 1385.33 614.416C1410.52 707.974 1397.92 806.929 1349.34 891.491C1248.59 1066.01 1023.69 1125.39 847.371 1024.63C672.85 923.876 611.678 700.777 712.432 526.256C761.01 441.694 840.174 382.321 935.531 357.132C966.118 349.935 998.503 344.538 1030.89 344.538ZM1029.09 1055.22C1059.68 1055.22 1090.26 1051.62 1120.85 1042.62C1210.81 1019.23 1286.37 961.659 1333.15 880.696C1379.93 799.733 1392.53 707.974 1367.34 618.015C1342.15 528.055 1284.57 454.288 1205.41 407.509C1124.45 360.731 1030.89 348.136 940.929 373.325C850.97 396.714 775.404 454.288 728.625 535.252C633.268 700.777 689.043 913.081 856.367 1008.44C908.544 1040.82 967.917 1055.22 1029.09 1055.22Z" fill="white" fill-opacity="0.01"/>
<path d="M949.932 439.902C1054.28 439.902 1158.64 484.882 1230.61 569.444C1293.58 643.211 1324.16 738.568 1315.17 835.724C1306.17 932.88 1261.19 1021.04 1185.63 1082.21C1110.06 1145.18 1014.7 1173.97 917.546 1166.77C820.39 1157.78 732.23 1112.8 669.258 1037.23C606.287 963.466 575.701 868.109 584.696 770.953C593.692 673.797 638.672 585.636 714.238 524.464C782.607 466.89 865.37 439.902 949.932 439.902ZM949.932 1150.58C1030.9 1150.58 1110.06 1121.79 1173.03 1069.62C1245 1010.24 1288.18 925.683 1297.17 833.924C1306.17 742.166 1277.38 652.207 1216.21 580.239C1092.07 434.505 872.567 414.714 725.033 537.058C653.066 596.432 609.885 680.993 600.889 772.752C591.893 864.511 620.68 954.47 681.853 1026.44C741.226 1096.61 825.788 1141.59 919.345 1148.78C930.141 1150.58 940.936 1150.58 949.932 1150.58Z" fill="white" fill-opacity="0.01"/>
<path d="M489.336 -105.255C593.689 -105.255 698.042 -60.2753 770.009 24.2865C899.551 179.017 879.76 407.514 725.029 537.055C570.299 666.597 338.204 646.805 208.662 492.075C79.1208 337.345 98.9119 108.848 253.642 -20.6932C322.011 -76.468 406.573 -105.255 489.336 -105.255ZM489.336 605.424C568.5 605.424 647.664 578.436 714.234 524.461C861.768 402.116 881.559 182.615 757.415 36.8808C633.271 -108.853 413.77 -128.645 266.236 -6.2998C118.703 116.045 98.9119 335.546 223.056 481.28C291.425 564.043 390.38 605.424 489.336 605.424Z" fill="white" fill-opacity="0.01"/>
<path d="M597.291 -166.431C746.624 -166.431 888.76 -74.6723 942.735 72.8611C1011.1 261.776 913.948 470.482 723.234 540.65C631.476 574.835 530.721 569.437 442.561 528.056C354.401 486.674 286.032 414.707 253.646 322.948C185.277 134.033 282.433 -74.6724 473.147 -144.841C512.729 -159.234 555.91 -166.431 597.291 -166.431ZM597.291 544.248C636.873 544.248 678.255 537.052 716.038 522.658C897.756 457.887 991.313 258.178 924.743 78.2588C858.173 -101.66 658.464 -193.419 476.746 -128.648C388.585 -96.2626 318.417 -33.291 280.634 51.2709C241.052 135.833 237.454 229.39 269.839 315.751C302.224 402.113 365.196 472.281 449.758 511.863C496.537 533.453 546.914 544.248 597.291 544.248Z" fill="white" fill-opacity="0.01"/>
<path d="M841.98 501.065C894.156 501.065 948.132 511.86 996.71 535.25C1084.87 576.631 1153.24 648.598 1185.62 740.357C1219.81 832.116 1214.41 931.071 1173.03 1019.23C1131.65 1107.39 1057.88 1173.96 966.124 1208.15C874.365 1240.53 773.61 1236.93 685.45 1195.55C597.29 1154.17 528.921 1082.2 496.535 990.444C462.351 898.686 467.748 799.73 509.13 711.57C550.511 623.41 624.278 556.84 716.036 522.655C757.418 508.262 800.598 501.065 841.98 501.065ZM841.98 1211.74C881.562 1211.74 922.943 1204.55 960.726 1190.15C1048.89 1157.77 1119.05 1094.8 1156.84 1010.24C1198.22 927.473 1201.82 833.915 1169.43 747.554C1137.05 661.193 1074.07 591.024 989.513 551.442C904.951 511.86 809.594 508.262 723.233 540.647C635.073 573.033 564.905 636.004 527.122 720.566C489.339 805.128 483.941 898.686 516.327 985.047C548.712 1071.41 611.683 1141.58 696.245 1181.16C741.225 1200.95 791.602 1211.74 841.98 1211.74Z" fill="white" fill-opacity="0.01"/>
<path d="M719.63 522.679C921.139 522.679 1086.66 686.406 1086.66 886.116C1086.66 1085.83 921.139 1251.35 719.63 1251.35C518.121 1251.35 352.595 1087.62 352.595 887.915C352.595 688.205 518.121 522.679 719.63 522.679ZM719.63 1233.36C912.143 1233.36 1068.67 1078.63 1068.67 886.116C1068.67 693.602 912.143 540.671 719.63 540.671C527.117 540.671 370.587 695.401 370.587 887.915C370.587 1080.43 527.117 1233.36 719.63 1233.36Z" fill="white" fill-opacity="0.01"/>
<path d="M719.63 -188C921.139 -188 1086.66 -24.2741 1086.66 175.436C1086.66 375.146 921.139 540.671 719.63 540.671C518.121 540.671 352.595 376.945 352.595 177.235C352.595 -22.4749 518.121 -188 719.63 -188ZM719.63 522.679C912.143 522.679 1068.67 367.949 1068.67 175.436C1068.67 -17.0774 912.143 -170.008 719.63 -170.008C527.117 -170.008 370.587 -15.2781 370.587 177.235C370.587 369.748 527.117 522.679 719.63 522.679Z" fill="white" fill-opacity="0.01"/>
</g>
</svg>
